<svg xmlns="http://www.w3.org/2000/svg" width="66.857" height="67.011" viewBox="0 0 66.857 67.011"><defs><style>.a{fill:#fff;}</style></defs><g transform="translate(-1481 -142)"><g transform="translate(1481 142)"><g transform="translate(0.001 10.808)"><path class="a" d="M54.884,127.556l-2.5-7.507A7.566,7.566,0,0,0,46.557,115l-7.223-1.314v-.56a10.878,10.878,0,0,0,3.222-2.861h2.182a3.246,3.246,0,0,0,3.242-3.242V94.051a14.051,14.051,0,1,0-28.1,0v7.566a4.33,4.33,0,0,0,3.447,4.234,10.828,10.828,0,0,0,5.2,7.274v.56L21.3,115a7.564,7.564,0,0,0-5.823,5.051l-.432,1.3-3.681-3.681a1.083,1.083,0,0,1,0-1.529l4.269-4.268L7.62,103.855,2.8,108.68a7.566,7.566,0,0,0,0,10.7L17.4,133.986a7.562,7.562,0,0,0,10.666.032l5.265-4.824-1.642-1.639Zm-9.065-20.536a1.082,1.082,0,0,1-1.081,1.081h-.909a10.735,10.735,0,0,0,.7-2.251,4.281,4.281,0,0,0,1.285-.511Zm-1.081-3.543V99.755a2.143,2.143,0,0,1,0,3.722Zm-21.616,0a2.143,2.143,0,0,1,0-3.722Zm0-7.265v1.234a4.287,4.287,0,0,0-1.081.447V94.051a11.889,11.889,0,1,1,23.778,0v3.843a4.247,4.247,0,0,0-1.081-.447V96.212H43.657A11.892,11.892,0,0,1,35.2,92.707L33.93,91.442l-1.266,1.266A11.892,11.892,0,0,1,24.2,96.212Zm2.162,7.566V98.333a14.013,14.013,0,0,0,8.647-3.841,14.007,14.007,0,0,0,8.647,3.841v5.445a8.582,8.582,0,0,1-1.169,4.323H33.93v2.162h5.7a8.633,8.633,0,0,1-14.347-6.485Zm11.889,10.31v.051l-3.242,3.242-3.242-3.242v-.051a10.8,10.8,0,0,0,6.485,0Zm-19.645,6.644a5.406,5.406,0,0,1,4.16-3.609l7.555-1.373,4.688,4.688,4.686-4.686,7.554,1.373a5.4,5.4,0,0,1,4.16,3.609l1.555,4.662H29.53l-4.21-4.21-4.678,4.231a1.1,1.1,0,0,1-1.528,0l-2.361-2.361Zm-9.908-13.82,4.957,4.957L11.4,113.042l-4.957-4.957ZM26.572,132.46a5.405,5.405,0,0,1-7.642,0L4.322,117.851a5.405,5.405,0,0,1,0-7.642l.594-.594,4.957,4.957-.039.039a3.248,3.248,0,0,0,0,4.586l7.751,7.751a3.226,3.226,0,0,0,2.294.95,3.182,3.182,0,0,0,2.254-.912l.081-.072,4.979,4.979Zm2.216-2.032-4.969-4.969,1.428-1.291,4.96,4.96Z" transform="translate(-0.58 -80)"/></g><g transform="translate(45.24)"><path class="a" d="M353.8,0H338.67a3.246,3.246,0,0,0-3.242,3.242v8.647a3.246,3.246,0,0,0,3.242,3.242h2.887L340.44,21.65l10.43-6.518H353.8a3.246,3.246,0,0,0,3.242-3.242V3.242A3.246,3.246,0,0,0,353.8,0Zm1.081,11.889A1.083,1.083,0,0,1,353.8,12.97h-3.553l-6.864,4.29.736-4.29H338.67a1.083,1.083,0,0,1-1.081-1.081V3.242a1.083,1.083,0,0,1,1.081-1.081H353.8a1.083,1.083,0,0,1,1.081,1.081Z" transform="translate(-335.428 0)"/></g><g transform="translate(49.563 4.323)"><rect class="a" width="12.97" height="2.162"/></g><g transform="translate(49.563 8.647)"><rect class="a" width="8.647" height="2.162"/></g><g transform="translate(60.372 8.647)"><rect class="a" width="2.162" height="2.162"/></g><g transform="translate(0 3.242)"><path class="a" d="M33.923,24A30.244,30.244,0,0,0,4.474,47.394L2.426,43.98.572,45.092l3.8,6.33,6.33-3.8L9.589,45.77,6.66,47.527A28.109,28.109,0,0,1,42.25,27.415l.64-2.064A30.243,30.243,0,0,0,33.923,24Z" transform="translate(-0.572 -24)"/></g><g transform="translate(55.185 20.132)"><path class="a" d="M420.183,152.815l-6.33-3.8-3.8,6.331,1.854,1.112,1.891-3.153a28.125,28.125,0,0,1-4.763,26.775l1.679,1.362a30.267,30.267,0,0,0,5.179-28.681l3.177,1.905Z" transform="translate(-409.036 -149.016)"/></g></g></g></svg>