<svg xmlns="http://www.w3.org/2000/svg" xmlns:xlink="http://www.w3.org/1999/xlink" width="59.943" height="60.06" viewBox="0 0 59.943 60.06"><defs><style>.a{fill:none;}.b{clip-path:url(#a);}.c{fill:#fff;}</style><clipPath id="a"><rect class="a" width="59.943" height="60.06"/></clipPath></defs><g class="b" transform="translate(0)"><g transform="translate(0)"><path class="c" d="M476.169,296.792h-7.522a2.1,2.1,0,1,1,0-4.207h5.418V278.2H470.75v6.955a2.1,2.1,0,0,1-2.1,2.1h0a2.1,2.1,0,0,1-2.1-2.1V278.2H439.2a2.1,2.1,0,0,1-2.1-2.1V238.924a2.1,2.1,0,0,1,2.1-2.1h29.447a2.1,2.1,0,0,1,2.1,2.1v35.068h3.316V238.835a2.1,2.1,0,0,1,2.1-2.1h9.059a2.107,2.107,0,0,1,1.7.864l9.708,13.319a2.107,2.107,0,0,1,.4,1.239V276.1a2.1,2.1,0,0,1-2.1,2.1H478.273v16.488A2.1,2.1,0,0,1,476.169,296.792Zm2.1-22.8h14.561l0-21.154-8.674-11.9h-5.886Zm-36.969,0h25.24V241.029l-25.24,0Z" transform="translate(-437.097 -236.732)"/></g><rect class="c" width="4.207" height="5.74" transform="translate(33.654 47.22) rotate(180)"/><rect class="c" width="4.207" height="5.74" transform="translate(41.176 47.22) rotate(180)"/><rect class="c" width="4.206" height="9.986" transform="translate(33.653 37.262) rotate(180)"/><rect class="c" width="4.206" height="9.986" transform="translate(41.176 37.262) rotate(180)"/></g></svg>