<svg xmlns="http://www.w3.org/2000/svg" xmlns:xlink="http://www.w3.org/1999/xlink" width="155.458" height="44.192" viewBox="0 0 155.458 44.192"><defs><style>.a{fill:url(#a);}.b{fill:#4a5f8e;}.c{fill:url(#b);}.d{fill:url(#c);}</style><linearGradient id="a" x1="0.5" y1="-0.078" x2="0.5" y2="1.119" gradientUnits="objectBoundingBox"><stop offset="0.001" stop-color="#00b5e7"/><stop offset="1" stop-color="#273279"/></linearGradient><linearGradient id="b" x1="-111.136" y1="-32.361" x2="-111.136" y2="-33.462" gradientUnits="objectBoundingBox"><stop offset="0" stop-color="#00b5e7" stop-opacity="0"/><stop offset="0.189" stop-color="#01b0e3" stop-opacity="0.031"/><stop offset="0.37" stop-color="#04a4d9" stop-opacity="0.125"/><stop offset="0.547" stop-color="#0b8fc7" stop-opacity="0.286"/><stop offset="0.723" stop-color="#1372ae" stop-opacity="0.51"/><stop offset="0.896" stop-color="#1f4c8f" stop-opacity="0.796"/><stop offset="1" stop-color="#273279"/></linearGradient><linearGradient id="c" x1="-114.713" y1="-32.361" x2="-114.713" y2="-33.462" xlink:href="#b"/></defs><g transform="translate(-44.645 -2.35)"><g transform="translate(0)"><g transform="translate(16.506 2.35)"><g transform="translate(28.139)"><path class="a" d="M489.831,260.48H484.3a1.548,1.548,0,1,1,0-3.1h3.987V246.8h-2.44v5.117a1.548,1.548,0,0,1-1.548,1.548h0a1.548,1.548,0,0,1-1.548-1.548V246.8H462.629a1.548,1.548,0,0,1-1.548-1.548V217.9a1.548,1.548,0,0,1,1.547-1.548H484.3a1.548,1.548,0,0,1,1.547,1.548v25.8h2.44v-25.87a1.548,1.548,0,0,1,1.548-1.548H496.5a1.549,1.549,0,0,1,1.251.636l7.143,9.8a1.549,1.549,0,0,1,.3.912v17.617a1.548,1.548,0,0,1-1.548,1.548H491.378v12.132A1.548,1.548,0,0,1,489.831,260.48Zm1.547-16.775h10.714V228.14l-6.382-8.757h-4.331Zm-27.2,0h18.572V219.45H464.177Z" transform="translate(-461.081 -216.288)"/></g><g transform="translate(86 8.376)"><path class="b" d="M370.573,408.8v21.987a1.209,1.209,0,0,1-.39.911,1.173,1.173,0,0,1-.911.39,1.3,1.3,0,0,1-1.3-1.3V408.8h-4.8a1.368,1.368,0,0,1-1.338-1.3,1.241,1.241,0,0,1,.409-.929,1.193,1.193,0,0,1,.929-.39h12.211a1.332,1.332,0,0,1,1.32,1.32,1.173,1.173,0,0,1-.39.911,1.231,1.231,0,0,1-.929.39Z" transform="translate(-361.837 -405.713)"/><path class="b" d="M434.876,429.612a1.209,1.209,0,0,1-.39.911,1.231,1.231,0,0,1-.929.39,1.334,1.334,0,0,1-1.3-1.3V423.98H422.144v5.632a1.21,1.21,0,0,1-.39.911,1.231,1.231,0,0,1-.929.39,1.334,1.334,0,0,1-1.3-1.3v-17.4a7.676,7.676,0,0,1,15.353,0Zm-2.621-8.252v-9.144a5.056,5.056,0,1,0-10.111,0v9.144Z" transform="translate(-403.167 -404.539)"/><path class="b" d="M497.906,411.732a1.2,1.2,0,0,1-.39.8,1.231,1.231,0,0,1-.929.39,1.35,1.35,0,0,1-1.3-1.189v-.576a3.626,3.626,0,0,0-1.338-2.825,4.813,4.813,0,0,0-3.253-1.171,4.742,4.742,0,0,0-3.234,1.171,3.626,3.626,0,0,0-1.338,2.825v1.264a3.36,3.36,0,0,0,.3,1.338,3.512,3.512,0,0,0,1.8,1.728,9.864,9.864,0,0,0,1.3.5l.688.2.706.186.483.111.465.13a8.962,8.962,0,0,1,4.888,2.918,5.561,5.561,0,0,1,1.152,3.476v1.691a6.147,6.147,0,0,1-2.119,4.684,7.65,7.65,0,0,1-10.167,0,6.147,6.147,0,0,1-2.119-4.684v-1.673a1.334,1.334,0,0,1,1.3-1.3,1.232,1.232,0,0,1,.929.39,1.211,1.211,0,0,1,.39.911v1.673a3.626,3.626,0,0,0,1.338,2.825,5.051,5.051,0,0,0,6.468,0,3.606,3.606,0,0,0,1.357-2.825v-1.691a2.988,2.988,0,0,0-.688-1.989,6.63,6.63,0,0,0-3.438-1.877q-.26-.074-.892-.242l-.409-.112-.428-.111q-.483-.13-.873-.26a10.233,10.233,0,0,1-1.766-.725,5.92,5.92,0,0,1-3.29-5.279v-1.264a6.146,6.146,0,0,1,2.119-4.683,7.65,7.65,0,0,1,10.167,0,6.146,6.146,0,0,1,2.119,4.683Z" transform="translate(-449.006 -404.539)"/><path class="b" d="M545.439,449.375a1.172,1.172,0,0,1-.911-.39,1.23,1.23,0,0,1-.391-.929,1.209,1.209,0,0,1,.391-.911,1.172,1.172,0,0,1,.911-.39h7.843a1.231,1.231,0,0,1,.929.39,1.21,1.21,0,0,1,.39.911,1.333,1.333,0,0,1-1.32,1.32Zm0,0a1.172,1.172,0,0,1-.911-.39,1.23,1.23,0,0,1-.391-.929,1.209,1.209,0,0,1,.391-.911,1.172,1.172,0,0,1,.911-.39h7.843a1.231,1.231,0,0,1,.929.39,1.21,1.21,0,0,1,.39.911,1.333,1.333,0,0,1-1.32,1.32Z" transform="translate(-492.45 -434.785)"/><path class="b" d="M598.619,404.605a7.679,7.679,0,0,1,7.676,7.676v11.412a7.676,7.676,0,0,1-15.352,0V412.281a7.678,7.678,0,0,1,7.676-7.676Zm5.055,7.676a5.045,5.045,0,0,0-5.055-5.074,5.077,5.077,0,0,0-5.056,5.074v11.412a5.056,5.056,0,1,0,10.111,0Z" transform="translate(-525.984 -404.586)"/><path class="b" d="M657.543,430.4a1.209,1.209,0,0,1-.39.911,1.23,1.23,0,0,1-.929.39,1.334,1.334,0,0,1-1.3-1.3V406.943a1.332,1.332,0,0,1,.279-.818,1.285,1.285,0,0,1,.725-.446,1.325,1.325,0,0,1,.873.074,1.341,1.341,0,0,1,.614.613l9.367,18.307V410.809h.018v-3.7a1.231,1.231,0,0,1,.39-.93,1.21,1.21,0,0,1,.911-.39,1.332,1.332,0,0,1,1.32,1.32v23.214a1.281,1.281,0,0,1-.279.818,1.3,1.3,0,0,1-.725.465,1.2,1.2,0,0,1-.855-.093,1.242,1.242,0,0,1-.613-.595l-9.4-18.363Z" transform="translate(-571.823 -405.326)"/></g></g></g><rect class="c" width="3.095" height="7.348" transform="translate(55.407 29.767) rotate(180)"/><rect class="d" width="3.095" height="7.348" transform="translate(60.942 29.767) rotate(180)"/></g></svg>