<svg xmlns="http://www.w3.org/2000/svg" width="64.495" height="64.495" viewBox="0 0 64.495 64.495"><defs><style>.a{fill:#fff;}</style></defs><g transform="translate(0 0)"><path class="a" d="M89.779,412a3.779,3.779,0,1,0,3.779,3.779A3.783,3.783,0,0,0,89.779,412Zm0,5.039a1.26,1.26,0,1,1,1.26-1.26A1.261,1.261,0,0,1,89.779,417.039Zm0,0" transform="translate(-75.167 -360.102)"/><path class="a" d="M60.716,51.9H58.7V24.69a1.26,1.26,0,0,0-1.26-1.26h-6.3V6.3a1.26,1.26,0,0,0-1.26-1.26H24.689A1.26,1.26,0,0,0,23.43,6.3V51.9h-.85a8.765,8.765,0,0,0-4.189-4.189V3.779A3.783,3.783,0,0,0,14.612,0H3.779a3.779,3.779,0,0,0,0,7.558h7.054V47.709A8.818,8.818,0,1,0,22.58,59.456H60.716a3.779,3.779,0,1,0,0-7.558Zm-4.535,0H25.949V25.949h8.818V39.3a1.26,1.26,0,0,0,2.015,1.008L41.065,37.1l4.283,3.212A1.26,1.26,0,0,0,47.364,39.3V25.949h8.818Zm-18.9-25.949h7.558V36.782l-3.023-2.267a1.26,1.26,0,0,0-1.512,0l-3.023,2.267ZM34.767,7.558h5.039v7.219l-1.821-1.213a1.26,1.26,0,0,0-1.4,0l-1.821,1.213Zm-2.519,0v9.573a1.26,1.26,0,0,0,1.958,1.048l3.08-2.053,3.08,2.053a1.26,1.26,0,0,0,1.958-1.048V7.558h6.3V23.43H25.949V7.558ZM3.779,5.039a1.26,1.26,0,0,1,0-2.519H14.612a1.261,1.261,0,0,1,1.26,1.26V46.951a8.761,8.761,0,0,0-2.519,0V6.3a1.26,1.26,0,0,0-1.26-1.26ZM14.612,61.976a6.3,6.3,0,1,1,6.3-6.3A6.305,6.305,0,0,1,14.612,61.976Zm46.1-5.039H23.339a8.761,8.761,0,0,0,0-2.519H60.716a1.26,1.26,0,0,1,0,2.519Zm0,0"/><path class="a" d="M407.26,357.039a1.26,1.26,0,0,0,1.26-1.26V353.26a1.26,1.26,0,1,0-2.519,0v2.519A1.26,1.26,0,0,0,407.26,357.039Zm0,0" transform="translate(-354.857 -307.66)"/><path class="a" d="M407.26,312a1.26,1.26,0,1,1-1.26,1.26A1.26,1.26,0,0,1,407.26,312Zm0,0" transform="translate(-354.857 -272.698)"/><path class="a" d="M367.26,352a1.26,1.26,0,0,0-1.26,1.26v2.519a1.26,1.26,0,0,0,2.519,0V353.26A1.26,1.26,0,0,0,367.26,352Zm0,0" transform="translate(-319.896 -307.66)"/></g></svg>