<svg xmlns="http://www.w3.org/2000/svg" width="73.985" height="46.8" viewBox="0 0 73.985 46.8"><defs><style>.a{fill:#fff;}</style></defs><g transform="translate(0 -94.062)"><g transform="translate(0 94.062)"><g transform="translate(0 0)"><path class="a" d="M68.806,113.9l-1.916-7.664a1.159,1.159,0,0,0,.917-1.133V103.87A4.871,4.871,0,0,0,62.941,99H54.215V96.456a2.4,2.4,0,0,0-2.394-2.394H7.337a2.4,2.4,0,0,0-2.394,2.394v21.006a1.158,1.158,0,1,0,2.317,0V96.456a.077.077,0,0,1,.077-.077H51.82a.077.077,0,0,1,.077.077v21.007a1.158,1.158,0,0,0,2.317,0v-1.313H67.886a3.791,3.791,0,0,1,3.6,2.626h-3.6a1.158,1.158,0,0,0-1.158,1.158v2.471a3.634,3.634,0,0,0,3.63,3.63h1.313v5.1H68.639a7.334,7.334,0,0,0-13.867,0h-.558V122.4a1.158,1.158,0,1,0-2.317,0v8.727H27.862a7.334,7.334,0,0,0-13.867,0H7.337a.077.077,0,0,1-.077-.077v-2.549h5.02a1.158,1.158,0,0,0,0-2.317H1.158a1.158,1.158,0,0,0,0,2.317H4.943v2.549a2.4,2.4,0,0,0,2.394,2.394h6.258c0,.026,0,.051,0,.077a7.337,7.337,0,1,0,14.673,0c0-.026,0-.051,0-.077H54.371c0,.026,0,.051,0,.077a7.337,7.337,0,1,0,14.673,0c0-.026,0-.051,0-.077h3.786a1.159,1.159,0,0,0,1.158-1.158V119.933A6.11,6.11,0,0,0,68.806,113.9ZM54.215,101.322h8.727a2.551,2.551,0,0,1,2.549,2.549v.077H54.215Zm0,12.511v-7.568H64.508l1.892,7.568ZM20.929,138.546a5.02,5.02,0,1,1,5.02-5.02A5.025,5.025,0,0,1,20.929,138.546Zm40.777,0a5.02,5.02,0,1,1,5.02-5.02A5.025,5.025,0,0,1,61.706,138.546Zm9.963-14.828H70.355a1.314,1.314,0,0,1-1.313-1.313v-1.313h2.626v2.626Z" transform="translate(0 -94.062)"/></g></g><g transform="translate(18.535 131.132)"><path class="a" d="M130.661,350.6a2.394,2.394,0,1,0,2.394,2.394A2.4,2.4,0,0,0,130.661,350.6Z" transform="translate(-128.267 -350.597)"/></g><g transform="translate(59.312 131.132)"><path class="a" d="M412.849,350.6a2.394,2.394,0,1,0,2.394,2.394A2.4,2.4,0,0,0,412.849,350.6Z" transform="translate(-410.455 -350.597)"/></g><g transform="translate(29.656 126.189)"><g transform="translate(0 0)"><path class="a" d="M223.685,316.393h-17.3a1.158,1.158,0,1,0,0,2.317h17.3a1.158,1.158,0,1,0,0-2.317Z" transform="translate(-205.227 -316.393)"/></g></g><g transform="translate(2.471 121.247)"><g transform="translate(0 0)"><path class="a" d="M33.088,282.188H18.26a1.158,1.158,0,0,0,0,2.317H33.088a1.158,1.158,0,0,0,0-2.317Z" transform="translate(-17.102 -282.188)"/></g></g><g transform="translate(21.006 105.183)"><g transform="translate(0 0)"><path class="a" d="M164.646,171.362a1.158,1.158,0,0,0-1.638,0l-10.3,10.3-5.359-5.359a1.158,1.158,0,0,0-1.638,1.638l6.178,6.178a1.158,1.158,0,0,0,1.638,0L164.646,173A1.159,1.159,0,0,0,164.646,171.362Z" transform="translate(-145.37 -171.023)"/></g></g></g></svg>