<svg xmlns="http://www.w3.org/2000/svg" width="16.303" height="16.294" viewBox="0 0 16.303 16.294"><defs><style>.a{fill:#222;}</style></defs><path class="a" d="M4.492-15.312a1.533,1.533,0,0,1,.918-.312,1.533,1.533,0,0,1,.918.313l.039.039.039.039,2.5,2.578.039.039-.039.039a1.13,1.13,0,0,1,.43.918,1.3,1.3,0,0,1-.391.957L7.7-9.453A7.937,7.937,0,0,0,9.453-6.875a9.094,9.094,0,0,0,2.539,1.719L13.2-6.367l.039-.039a1.405,1.405,0,0,1,.977-.352,1.405,1.405,0,0,1,.977.352l.039.078,2.5,2.5a1.325,1.325,0,0,1,.391.977,1.325,1.325,0,0,1-.391.977L15.82.078h-.039a2.127,2.127,0,0,1-2.187.469A21.075,21.075,0,0,1,6.484-3.984a19.24,19.24,0,0,1-4.531-7.109A1.809,1.809,0,0,1,2.5-13.2v-.039l1.953-1.992v-.039ZM5.547-14.3a.214.214,0,0,0-.137-.078.214.214,0,0,0-.137.078L3.359-12.383v.039a.7.7,0,0,0-.234.82A17.565,17.565,0,0,0,7.383-4.883a19.177,19.177,0,0,0,6.6,4.219.9.9,0,0,0,.977-.2l1.914-1.875q.078-.117,0-.2L14.3-5.469q-.078-.117-.156,0L12.578-3.906l-.312.273-.391-.2A10.575,10.575,0,0,1,8.711-5.859l-.117-.117a7.208,7.208,0,0,1-1.25-1.465,9.714,9.714,0,0,1-.781-1.387l-.234-.508-.117-.391L6.484-10l1.563-1.562q.117-.078.078-.156H8.086l-.039-.039Z" transform="translate(-1.822 15.625)"/></svg>