<svg xmlns="http://www.w3.org/2000/svg" width="53.585" height="56.99" viewBox="0 0 53.585 56.99"><defs><style>.a{fill:#fff;}</style></defs><g transform="translate(-1.793)"><path class="a" d="M31.441,37.187A3.38,3.38,0,0,0,33.917,35.8L42.81,23.506a.95.95,0,0,0-1.327-1.327l-12.3,8.9A3.385,3.385,0,0,0,31.175,37.2C31.264,37.2,31.352,37.194,31.441,37.187ZM29.7,33.7a1.482,1.482,0,0,1,.605-1.085l7.5-5.426-5.425,7.5A1.484,1.484,0,0,1,29.7,33.7Z" transform="translate(-1.304 -1.104)"/><path class="a" d="M52.517,18.583c-.009-.02-.009-.041-.02-.061s-.029-.029-.042-.047a25.822,25.822,0,0,0-3.386-4.568l2.04-2.039,1.343,1.343,4.029-4.03L52.452,5.151,48.422,9.18l1.344,1.344-2.04,2.039a25.792,25.792,0,0,0-4.568-3.387c-.018-.012-.028-.03-.047-.042s-.041-.01-.061-.021A25.466,25.466,0,0,0,33.292,5.88V4.749h1.425a2.375,2.375,0,1,0,0-4.749H26.168a2.375,2.375,0,0,0,0,4.749h1.425v1.1a26.125,26.125,0,0,0-3.062.508.95.95,0,0,0,.425,1.851A24.155,24.155,0,0,1,27.6,7.753l1.019-.079c.312-.024.6-.041.878-.054V9.5a.95.95,0,1,0,1.9,0V7.627a23.561,23.561,0,0,1,9.931,2.7l-.937,1.621a.95.95,0,1,0,1.645.95l.934-1.618a23.93,23.93,0,0,1,7.382,7.382L48.73,19.6a.95.95,0,0,0,.952,1.645l1.621-.937a23.574,23.574,0,0,1,2.706,10.086H52.133a.95.95,0,0,0,0,1.9h1.876A23.574,23.574,0,0,1,51.3,42.38l-1.621-.937a.95.95,0,0,0-.95,1.645l1.618.934A23.93,23.93,0,0,1,42.967,51.4l-.934-1.618a.95.95,0,0,0-1.645.95l.937,1.621a23.561,23.561,0,0,1-9.931,2.7V53.191a.95.95,0,0,0-1.9,0v1.877a23.969,23.969,0,0,1-4.536-.586.95.95,0,0,0-.425,1.851,25.666,25.666,0,0,0,5.754.657c.047,0,.091,0,.138,0,.007,0,.011,0,.017,0s.014,0,.022,0A25.48,25.48,0,0,0,43.02,53.592a.8.8,0,0,0,.089-.037c.019-.011.029-.029.047-.042a25.833,25.833,0,0,0,9.283-9.271.9.9,0,0,0,.057-.074c.011-.02.01-.041.02-.061a25.546,25.546,0,0,0,0-25.524ZM52.451,7.837,53.794,9.18l-1.343,1.344L51.107,9.18ZM29.492,5.719V2.85H26.168a.475.475,0,1,1,0-.95h8.549a.475.475,0,0,1,0,.95H31.392V5.719c-.331-.013-.646-.02-.95-.02l-.084,0-.071,0c-.156,0-.312.01-.467.013C29.709,5.715,29.606,5.714,29.492,5.719Z" transform="translate(-1.104)"/><path class="a" d="M21.492,14H16.743a.95.95,0,0,0,0,1.9h4.749a.95.95,0,0,0,0-1.9Z" transform="translate(-0.702 -0.702)"/><path class="a" d="M21.241,21h-9.5a.95.95,0,1,0,0,1.9h9.5a.95.95,0,0,0,0-1.9Z" transform="translate(-0.451 -1.053)"/><path class="a" d="M20.99,28H6.743a.95.95,0,0,0,0,1.9H20.99a.95.95,0,0,0,0-1.9Z" transform="translate(-0.201 -1.405)"/><path class="a" d="M20.79,35H2.743a.95.95,0,0,0,0,1.9H20.79a.95.95,0,0,0,0-1.9Z" transform="translate(0 -1.756)"/><path class="a" d="M21.091,42H8.743a.95.95,0,0,0,0,1.9H21.091a.95.95,0,0,0,0-1.9Z" transform="translate(-0.301 -2.107)"/><path class="a" d="M21.392,49H14.743a.95.95,0,0,0,0,1.9h6.649a.95.95,0,0,0,0-1.9Z" transform="translate(-0.602 -2.458)"/></g></svg>